<?xml version="1.0" encoding="UTF-8"?>
<svg id="a" data-name="Layer 1" xmlns="http://www.w3.org/2000/svg" viewBox="0 0 1818.55 2196.69">
  <path d="M1195.53,6.43l140.81,3.67,3.67-3.67c144.47,6.43,309.2,2.75,463.8,3.67l14.75,4.6c-9.22,311.97,8.29,595.43-21.18,906.47-87.42,519.06-420.56,1021.51-902.79,1275.51-12.89-1.83-20.26-14.72-33.12-16.56C434.43,1917.84,120.64,1478.89,26.77,999.41,3.76,883.46,3.76,748.17.09,634.97h1.84c5.51-19.31-3.68-39.56,1.83-57.05-10.12-69.93,3.7-140.79.93-216.26L6.55,5.51,12.98,0l331.3,1.85,851.24,4.58h0Z" style="fill-rule: evenodd;"/>
  <path d="M70.96,18.39c129.75.91,267.79,4.59,405.82,3.67,8.3,4.59,20.26-2.76,32.22,0l157.36.92,706.77,3.67c150.93,1.85,280.7,3.7,427.04,4.6l-.93,421.49c0,172.1-4.6,354.31-28.52,528.25-7.37,1.83.91,14.72-6.46,16.56-4.6,29.44-11.02,55.21-20.25,80.98-5.46,30.47-13.78,60.36-24.85,89.27.93,11.04-5.53,16.56-8.29,24.84-6.43,23.93-15.65,47.85-24.85,69.95-35.9,94.8-80.08,193.25-137.12,276.07-39.57,67.2-78.22,131.6-127.92,188.67-76.38,105.83-191.41,217.18-298.15,300.02h-4.6c-27.59,26.68-62.57,46.92-91.09,66.25-28.55,16.56-57.99,39.56-89.27,53.36-6.46,11.06-18.42,12.89-30.39,18.42-8.27,11.05-23-.91-34.95,0-43.25-29.44-87.43-55.21-125.16-88.35-21.17-7.35-44.17-27.61-59.83-41.41-5.51,0-8.27-7.35-14.72-10.12-126.08-107.69-240.19-227.31-334.97-354.31,3.67-9.21-6.45-10.12-10.14-14.72-29.44-45.1-62.57-90.18-83.75-137.12-15.65-15.65-16.56-37.74-32.22-51.55-4.6-16.56-14.72-25.76-17.47-43.24C12.05,1117.2,5.6,714.12,20.32,333.13L24.93,24.84c2.75-11.98,18.4-4.59,28.52-6.45,4.6,7.37,11.97-.92,17.51,0h0Z" style="fill: #900d35; fill-rule: evenodd;"/>
  <path d="M397.64,233.74c23.01-15.65,58.91-7.35,78.22,4.6,7.35,11.96,19.32,15.64,29.44,18.4,48.79-64.43,123.32,7.35,186.82-33.12,25.77,4.58,37.73,23.92,59.83,33.12,21.17.91,44.16-2.78,63.49,3.67v84.67c17.5,10.12,33.12,5.51,50.62,14.72,12.88,11.96,14.72,31.28,11.96,47.85-16.56,21.17-37.73,21.17-61.66,24.85-.93,74.54-6.46,144.48,0,219.95,27.6,0,46,10.12,56.15,34.97,4.59,25.76-12.89,39.56-27.61,49.7-11.96,1.83-31.28-4.6-33.12,11.96v107.66c-7.37,21.17-38.65,12.9-58,19.32-5.51-5.5-14.72-1.84-21.15-2.75-7.35,10.12-8.27-5.51-16.56,0h-173.92c-21.15,7.37-43.24,40.49-65.34,16.56-19.32-25.76-62.57-20.23-87.42-18.4l-205.21-6.43c-11.05-4.59-12.89-14.73-11.97-26.7v-105.82c-16.56-5.54-38.65-2.78-51.53-14.73-20.26-16.56-3.7-42.33-.93-61.66,10.14-13.81,36.82-7.37,52.46-11.96,6.43-74.54,8.27-138.95,5.53-218.1-23.93-3.67-52.45-3.67-63.5-28.53-.91-13.8-5.51-27.61,3.7-39.57,14.72-17.48,36.8-17.48,59.82-14.72l4.59-6.45,1.85-71.77c4.6-19.32,30.35-11.05,46-14.72,29.45,10.12,42.35-22.1,66.26-29.45,15.64-8.27,24.85,9.21,41.41,8.3,19.31,9.2,35.87,2.75,59.79,4.59h0ZM1253.51,225.45c17.48,10.13,41.39,13.8,49.7,34.98,14.72,8.29,13.77-10.12,24.82-14.72,47.85-43.24,109.5,21.17,159.2-16.56,34.98-13.81,60.75,32.19,86.51,34.05,16.56-2.75,39.6-.91,56.16,5.54,7.34,30.35-2.79,59.8,10.1,85.59,23-.93,47.85-1.85,52.46,23.92,6.43,8.27,2.74,18.42,3.67,31.3-3.67,2.75-14.75.91-11.96,10.12l3.67,2.78c-13.8,17.48-57.04-1.84-56.13,30.35,5.53,60.75-3.67,133.45,1.85,199.71,19.3,11.96,47.83,7.35,57.99,32.19,1.83,16.56,5.5,41.41-13.83,49.69-13.8,8.3-41.41,0-47.83,19.35v114.11l-11.98,10.12c-83.75,10.12-181.3-4.6-269.63,0-9.22,12.88-19.35,13.81-29.45,20.26-23.02,1.83-39.57-11.05-57.04-22.11-76.4-.91-141.73,2.76-216.28-2.75-11.96,7.37-25.76-.91-38.65-1.84l-8.29-14.73v-117.79c-23.92-3.67-51.53-.91-59.8-29.44-3.67-15.65,0-26.69,5.53-40.49,12.87-16.56,34.05-17.5,54.29-16.56l3.7-6.46v-209.82c-15.65-11.04-34.98,0-49.7-11.96-11.05-11.02-15.63-20.23-18.39-34.95,4.59-12.89,9.17-27.61,24.82-34.98,11.96-11.05,35.9,2.75,45.1-11.05-1.83-28.52,1.85-50.61,2.76-76.38,17.51-19.32,50.63-4.6,68.12-10.12,16.56-13.8,41.41-18.4,57.99-31.31,35.87,27.63,80.96,4.62,120.53.01h0Z" style="fill-rule: evenodd;"/>
  <path d="M1285.7,253.97c23,28.52,16.56,71.79,17.51,107.67,2.76.91,3.67,4.6,7.34,4.6,6.43-8.29.91-17.5,4.6-24.86-4.6-34.05-2.79-71.79,23-94.8,28.52-8.27,63.49-6.43,91.11,5.53,23-5.53,42.33-2.76,64.39-8.29,8.31,57.05-.91,122.41,1.85,175.77,1.85,2.78,5.53.93,8.29.93l3.7-4.6c-5.53-30.38,3.64-57.05-1.85-86.51,9.2-25.77-5.53-57.97,6.43-87.43,17.48,9.21,39.6,21.17,47.85,37.74,0,173.94-3.67,327.63-9.2,505.24h-5.53c-14.72-19.32-46.03-32.22-39.57-58.91l1.85-295.4c-2.76-4.6-10.13-4.6-13.83-2.76-3.67,106.74.93,198.77-2.74,299.08-.93,16.56-15.65,18.42-30.38,16.56-17.48,1.85-28.52-12.88-44.18-16.56h-55.23c-13.8,8.3-29.44,17.51-46,13.81-4.6-28.53,2.76-63.5-6.46-88.34l-8.29,8.27c-1.83,27.61,3.7,56.15-5.53,82.82-18.39,4.6-31.28-14.72-50.58-12.88-38.68-15.65-69.97,15.64-106.77,4.6l-2.76-6.45c-1.83-158.3,1.85-321.18,2.76-484.99,16.56,0,34.05,12.89,51.53,8.29,15.65-4.59,32.22-14.73,47.87-13.8l3.67-4.6c11.98,10.13,33.15,5.53,45.11,20.25h0ZM302.86,237.41c1.84,95.72-1.84,177.62-2.75,273.34,6.42,1.85.91,6.45,0,9.21-.93,69.93-1.85,139.88-3.68,215.35-16.58,12.88-25.77,35.9-44.19,45.1-5.51-171.17,1.85-346.02,2.79-518.12,14.71-11.98,30.34-25.78,47.83-24.88h0ZM493.34,275.14c.93,26.7-.91,58.91,1.85,81l3.68,3.67c15.63-27.61,3.67-55.21,10.12-84.67,6.45-17.48,23.93-27.6,41.4-34.95,46.03-6.45,84.68,21.15,130.7,1.83,7.37,39.58-1.84,75.47,1.83,114.13l-7.35,345.09c3.68,18.4-10.13,29.45-25.77,31.3-43.25-4.59-94.8-30.38-134.34,2.76-14.75,4.59-13.8-11.96-13.8-21.17-.93-24.86,2.76-46.94-2.76-68.1-4.6-1.84-9.21,2.75-8.29,6.46l-1.84,78.22c-18.39.92-36.81-9.2-56.12-11.96-26.7,0-46.94,14.72-72.71,13.8-12.89,6.43-29.45.92-41.41-1.84l-7.35-8.29c-2.76-161.05,5.53-323.95,5.53-484.06,11.04-3.7,24.85,7.35,37.74,10.12,46.87-2.78,114.07-28.55,138.91,26.67h0ZM740.9,265.02c-3.68,170.24,0,340.5-3.68,519.02,0,2.78-5.51.93-8.27.93-15.65-20.26-32.22-39.57-41.43-62.59,5.54-170.25,1.85-318.41,10.13-484.06,17.5,1.85,29.47,19.34,43.25,26.69ZM1124.65,243.86c7.37,92.94-6.43,192.33-1.83,288.05l-2.76,211.65c-17.48,11.97-28.52,32.22-46.94,45.1l-2.76-6.42,2.76-384.68,3.67-130.67c15.67-7.37,31.32-18.42,47.86-23.02h0Z" style="fill: #fff; fill-rule: evenodd;"/>
  <path d="M240.26,265.02c8.29,26.68-.91,58.9,1.84,82.81l-6.45,453.71,12.89,11.96,195.09,1.84,3.68,37.73c-84.67,3.67-171.19,1.83-258.59-1.84-6.46-38.66-.93-86.51-4.6-128.85-15.65-17.48-48.79.93-59.83-21.17-3.67-11.97-1.83-25.77,4.6-34.97,15.65-16.56,48.78,5.53,59.83-18.4-5.53-78.22,5.51-160.14-2.78-235.61-19.32-3.67-46,3.7-57.96-12.88-6.45-9.2-7.35-24.86-1.84-34.98,14.72-21.17,53.38.91,68.1-18.4l.91-74.54c11.97-10.09,30.39-8.25,45.1-6.41h0ZM805.33,351.53c20.26,18.39,67.18,1.83,62.58,41.4-2.78,34.05-45.1,14.72-62.58,33.14-3.67,79.15,0,150-3.67,233.75,11.02,13.8,35.89,5.51,51.52,14.72,8.3,8.29,14.73,24.86,4.6,34.98-11.96,18.4-32.19,11.05-52.45,12.88-9.21,46.03-2.76,92.95-10.13,136.21-80.06-1.85-168.4,2.76-246.63-3.68l1.83-37.74h188.66c11.06-2.75,5.53-14.72,11.06-20.23l1.84-449.1,5.53-74.52c14.72-8.29,30.38-4.6,47.85-2.78v80.98h0ZM1064.84,281.59c-5.53,170.25-3.67,352.47-11.05,525.47-.91,8.3,8.29,11.97,14.72,12.9h185l5.53,39.56c-78.22,4.6-161.99-.91-240.21-.91-11.96-7.35-4.59-24.86-6.41-33.12l-1.85-98.48c-22.09-1.84-52.46-.91-63.5-24.84-.91-13.8,2.76-28.52,16.56-33.12,19.32-4.6,40.48,5.51,49.7-14.72v-231.93c-23.02-6.45-60.75,3.67-67.18-26.7,0-11.96,3.67-22.09,11.02-31.3,17.51.91,33.14-8.27,49.7-4.59,12.89-29.44,1.85-62.57,14.75-91.1,16.55,4.62,42.29-11.04,43.23,12.88h0ZM1626.21,361.66c17.48,10.12,53.37-2.75,59.8,23.01,2.76,11.97-2.76,22.09-8.29,31.3-15.63,11.96-40.48,3.67-57.99,12.88,8.31,67.18-.91,125.16,1.85,192.35-.91,17.48-7.34,43.24,11.98,51.52,14.72-4.6,29.44.93,41.41,8.29,7.34,9.21,7.34,23.93,4.59,34.98-14.75,23.92-56.13-.93-59.83,31.28l-1.83,103.07-12.89,12.89h-244.78l2.76-39.57c64.42-3.67,131.59,0,196.01-3.67l8.29-8.3c1.85-174.85,1.85-358.91,6.43-536.52,17.48-1.83,33.14-3.67,49.7,1.84l2.76,84.65h0Z" style="fill: #fff; fill-rule: evenodd;"/>
  <path d="M393.95,399.39c-2.75,11.04-17.48,17.48-9.21,33.12,11.06,42.35,15.65,88.35,34.06,127.92l7.37-3.7c11.96-46.94,27.61-92.95,35.89-142.64-2.75-10.12-19.32,1.84-16.56-11.05,11.05-1.83,36.82-5.51,43.24,2.78-23,7.37-15.64,35.89-26.69,53.37-13.8,46.02-17.48,96.64-41.4,138.97-26.7-54.3-27.61-121.49-49.7-178.55,3.67-21.17-28.55,0-18.4-22.07l41.41,1.85ZM612.99,401.23c7.35,12.88,11.02,31.28,4.6,46-12.9-6.46,6.42-39.57-16.56-33.12l-6.45-2.76-47.85.91c-5.54,23.01-3.68,52.45-1.84,73.63,13.8,7.35,29.44-1.83,43.24.92,1.84,5.53,9.21,3.67,6.45,10.12-12.88,16.56-50.61-11.96-49.69,16.56,2.75,22.07-6.46,41.41,1.84,63.5,21.17,9.2,46.94,1.84,69.93,0,0-11.05-1.83-22.09,4.6-30.38,13.8,8.29.92,26.68,4.59,41.43l-4.59,5.51c-35.9-.93-67.17.91-103.06-1.84-5.54-2.76-3.7-7.35-.93-11.96,11.05,1.84,15.65-7.37,17.51-16.56l-.93-149.09c-5.51-9.21-26.69-.91-15.63-16.56,27.57,6.46,63.47,2.76,94.76,3.7h0ZM1311.48,436.19c11.08,18.4,1.85,40.49-4.59,58-6.46,12.87-38.65,11.96-21.18,33.12,13.8,20.25,10.1,60.75,44.17,64.42,3.67-3.67,7.37-9.21,13.8-6.45,5.53,11.05-11.96,13.8-18.42,17.5-53.37-11.96-25.76-100.32-94.8-91.11-7.34-2.75-11.96,5.53-12.89,10.14v57.96c4.6,10.12,28.55,0,19.35,14.72l-2.79,3.7c-13.77-3.7-40.48,8.27-46.91-10.12l18.39-8.29c6.46-53.4,2.76-108.6,3.7-160.14-4.6-7.35-14.72-4.59-20.26-5.51v-10.12c44.19,8.24,97.6-13.84,122.42,32.17h0ZM1434.78,407.67c6.46,13.8-12.87,10.13-20.22,12.89l-1.85,159.2c2.76,7.35,26.68,1.84,14.72,14.72-12.87,8.29-27.61-.91-42.33,1.84-2.76-2.75-8.29-6.45-3.67-10.12,3.67-5.53,11.02-1.84,16.56-2.75,7.34-57.08,4.59-107.68,4.59-163.82-5.53-6.42-23,5.54-21.15-10.12,15.64-5.53,38.65-3.68,53.36-1.85h0Z" style="fill-rule: evenodd;"/>
  <path d="M1300.42,438.96c1.85,16.56,6.46,34.05-5.53,47.85-19.3,16.56-49.67,11.96-74.52,10.12-1.85-24.84-3.7-56.15,1.83-77.31,24.85,3.7,65.35-11.95,78.22,19.35h0ZM467.58,745.41c-9.21,17.48-13.79,37.73-23.93,53.38l-174.86-3.68c-2.76-17.48,19.34-29.45,29.45-44.19,14.72-9.21,34.05.93,51.54.93,37.74-4.6,80.98-26.7,117.79-6.45ZM669.13,743.56h10.12c15.63,18.4,32.19,34.06,39.57,57.05-60.74,1.84-116.88-3.67-173.94-1.83,7.35-23.94-27.63-37.73-8.27-57.99,48.77-23.92,85.59,23.94,132.53,2.76ZM1269.14,755.53c.93,18.4-9.2,32.22-10.1,49.69l-172.11-1.82v-6.46l44.17-43.24c48.77,12.88,95.7-33.12,138.04,1.83ZM1499.2,757.37c17.51,14.72,34.07,28.53,43.27,47.85-60.75,6.45-118.73.93-181.3,0-4.6-18.39-17.48-34.03-16.56-54.29,55.23-31.28,99.4,23.93,154.6,6.45h0ZM526.48,775.79c11.96,34.05,15.64,75.46-11.04,102.14-16.56,3.7-35.91,2.76-46.94-11.05-13.8-33.12-10.13-80.98,11.97-107.66,16.56-11.96,38.64-1.84,46,16.58ZM1336.35,776.69c11.02,28.52,16.54,68.1,1.83,96.62-11.98,7.37-27.61,12.89-43.27,8.3-13.8-2.78-20.25-15.65-23-28.53-.91-33.12-5.53-76.39,26.7-93.88,14.69-4.6,34.02.92,37.73,17.48Z" style="fill: #fff; fill-rule: evenodd;"/>
  <path d="M732.62,1131.92c44.17.92,101.23-25.77,139.89,2.78,12.88,8.29,19.32,27.6,34.95,30.36,22.1-32.2,56.15-45.1,94.81-43.25,51.53,11.05,113.19,27.63,157.36-5.51,29.44,11.96,47.85,36.8,76.38,43.24,20.26-1.84,44.17-4.59,60.75,8.3.91,20.23,4.6,36.8,3.67,59.8,17.51,11.97,43.27,2.76,59.83,18.42,7.53,11.23,11.97,24.24,12.87,37.73-6.43,15.63-19.3,23.93-34.95,31.28-10.13,2.76-33.14-5.54-37.74,8.27l-1.83,243.88c8.29,13.8,32.19,0,41.41,11.05,16.54-1.85,25.76,15.65,33.11,24.84-1.83,13.8,4.6,30.38-4.59,40.5-11.98,31.3-52.46,6.43-69.95,27.6v96.64c-6.43,14.71-26.7,18.4-41.41,16.55l-298.17-1.85c-15.65,12.9-17.48,36.83-39.57,46.04-15.64,5.51-29.45-1.85-41.41-8.3-13.8-9.21-13.8-29.45-24.86-37.74-109.5-.89-210.75,2.76-316.55-3.66-11.05-6.45-24.86,7.35-33.12-6.45-3.7-16.56-12.9-38.64-4.6-53.38-.93-5.53-6.45-13.79,0-17.48-5.54-14.72,7.35-34.97-8.29-45.1-21.17,5.51-40.49-.91-56.15-12.88-3.66-19.34-19.32-44.18,2.78-59.82,13.79-16.56,37.72-9.21,56.12-13.8,11.06-3.67-1.84-15.64,5.54-19.33v-236.52c-11.05-11.96-19.34.93-31.3-5.51-15.64-2.76-29.45-10.12-34.95-26.69-4.6-14.72.91-24.85,4.59-37.73,15.63-19.31,43.25-11.05,63.49-20.26,3.7-24.84-11.04-55.21,12.9-69.01,46.94,12.89,82.82-19.31,115.95-39.58,34.97,4.6,65.32,23.01,103.06,16.56h0Z" style="fill-rule: evenodd;"/>
  <path d="M1126.5,1144.82c8.29-1.84,15.63-9.2,26.68-6.45l2.79,6.45,1.83,333.15c-11.05,46.91.91,98.45-4.6,151.84-68.09,46.94-133.42-30.38-202.42,5.51-12.89,9.21-24.88,18.42-39.58,23.02l-1.85-99.4c-2.75-1.84-3.67-7.35-8.27-5.54-12.89,34.07,4.59,71.8-8.29,101.24-34.98-34.97-98.48-36.81-142.64-18.4-33.14,6.45-79.15,18.4-108.61-2.76l.92-427,3.68-69.95c15.64-9.21,23.01,10.13,37.74,8.29,74.52,25.76,164.72-56.15,210.75,31.28,4.59,22.07-2.75,48.79,6.45,68.1,18.39-11.05,5.51-40.49,11.96-59.8,16.58-28.55,36.81-46.94,69.04-51.55,47.83,9.21,93.84,18.42,144.44,11.97h0ZM625.87,1625.2c-.91,26.69-25.77,52.45-44.16,68.1h-6.45l4.6-530.07c15.63-10.14,29.44-23.96,47.85-28.53l-1.84,490.5h0Z" style="fill: #fff; fill-rule: evenodd;"/>
  <path d="M901.05,1302.18c23.01,56.13,34.05,117.79,53.36,175.79,6.46,5.51,16.56.91,21.18,11.04-11.05,11.96-30.38-1.85-43.24,5.54-2.76-2.78-6.46-7.38-2.76-10.14,18.39-1.83,10.1-18.39,9.2-30.38-5.53-27.59-46.02-13.77-67.18-17.48-19.32-3.67-11.05,19.32-20.23,27.61-4.6,13.81,8.27,12.88,12.88,22.09l-4.6,6.45c-12.88-8.3-40.49,11.04-39.57-10.12,10.13-4.59,21.17-2.78,23.01-16.56,16.56-54.29,27.61-111.37,49.7-163.82h8.27Z" style="fill-rule: evenodd;"/>
  <path d="M1222.2,1167.82c2.76,178.53-4.6,359.82,0,533.74l-10.1-1.85-46-59.8c7.34-167.49-.93-323.95,4.59-498.79,19.31,3.7,34.95,18.42,51.52,26.7h0ZM563.3,1165.98c1.84,173.92-3.68,375.46-1.85,548.49l10.12,10.12h284.39c7.35,11.97,1.83,27.6-.93,39.58l-6.46,4.58c-103.06,0-195.09-5.51-291.72-8.27-6.46,5.53-10.12,0-16.56,0-10.12,4.6-20.25.91-28.53-2.75l-2.75-107.69c-22.07-15.63-62.59,7.35-71.77-28.53,0-12.87-1.85-25.76,11.96-33.12l54.3-4.59,6.42-10.12c-.91-99.39,2.76-177.61-2.76-273.31-11.05-1.85-26.68-2.79-39.57-4.6-11.04-.92-25.77-3.68-26.69-16.56-.91-11.96.91-23,6.45-31.3,16.56-3.67,35.89-10.12,51.54-5.53,24.84-12.87,7.35-45.1,14.72-69.01,12.89-12.92,31.31-4.62,49.71-7.38h0Z" style="fill: #fff; fill-rule: evenodd;"/>
  <path d="M1285.7,1173.34c11.05,24.84-11.96,60.76,19.32,75.46,20.25.92,47.85-4.59,55.23,18.42,4.6,16.56-7.37,28.52-20.25,33.14-17.48,7.35-47.85-10.13-54.32,14.72l2.76,5.53c-1.83,86.51-1.83,169.33-1.83,254.91,5.53,25.77,36.81,4.6,49.7,18.42,8.26-5.54,15.63,1.83,22.06,6.42,8.29,10.14,2.76,23.93,0,34.97-18.39,23.02-55.2.92-72.7,21.18l-1.85,105.83-10.1,6.42h-314.75c-10.1-9.18-5.53-24.84-6.43-37.7,10.13-11.05,26.7,0,37.72-3.68h231.91c6.46-3.68,14.75-9.21,13.8-17.48v-536.53c15.65.91,27.61-3.68,44.17,0h5.55Z" style="fill: #fff; fill-rule: evenodd;"/>
  <path d="M1083.26,1304.02c11.02,1.84,6.43,17.48,10.1,23.01-.91,8.27.91,17.47-1.83,24.82-12.89-7.35-13.8-28.52-29.45-34.94-18.42-3.7-41.41-2.79-49.67,14.72-3.7,11.04-9.22,24.84,0,34.97,24.82,28.52,70.85,22.07,87.42,62.57,4.6,19.32,2.76,38.64-10.13,53.38-12.89,21.15-41.41,15.64-60.72,11.97-10.16-11.97-21.18,15.63-23.94-5.54-3.7-14.72-5.53-33.14-4.6-47.85,13.8,1.84,7.37,21.17,12.89,29.44,12.87,17.51,34.05,16.56,51.53,13.8,11.05-2.76,25.78-11.96,26.7-24.84,5.5-11.96-3.67-22.1-4.6-33.12-28.52-34.98-107.66-34.07-86.51-94.8,9.2-15.65,20.25-25.77,37.74-29.45,18.38-7.35,33.12,24.88,45.08,1.85h0ZM813.62,1306.77c-.93,13.81,2.75,36.82-10.14,45.1l-1.83-33.12c-18.4,1.85-37.73-11.97-49.7,4.59-1.84,49.7-3.68,105.83,1.83,152.77,3.7,6.45,22.1,0,16.56,14.72l-47.85,1.85c-11.05-20.26,18.4-5.54,18.4-22.1.92-51.53,3.68-103.06-1.84-151.84-13.8,0-35.89-8.29-43.24,6.45-2.75,9.21-1.84,19.31-8.29,26.68-3.67-14.72-1.83-39.56,11.96-47.83,38.68,8.27,71.8-2.78,114.13,2.74h0Z" style="fill-rule: evenodd;"/>
  <path d="M911.16,1362.91c1.84,21.17,16.56,36.82,12.89,59.8h-54.32c3.7-31.28,10.14-67.17,26.7-95.69,7.35,8.27,11.96,23.01,14.72,35.89ZM884.47,1676.74c-9.2,65.33-77.3,19.33-117.8,33.14l-174.86-3.68c8.27-21.18,28.53-33.14,39.58-53.4,30.35,8.3,73.63,13.81,105.82,1.85,43.28-12.89,122.41-30.39,147.26,22.09ZM1151.35,1652.79c21.15,16.58,40.48,34.98,51.53,58-80.96,5.51-172.99-1.85-255.83,0-5.53-11.97-20.26-25.77-24.85-39.58,72.7-65.33,150.01,15.65,229.15-18.42Z" style="fill: #fff; fill-rule: evenodd;"/>
  <path d="M930.49,1706.19c10.1,31.28,19.32,70.85-.91,99.39-13.81,10.1-31.31,7.35-46.94,3.68-23.01-23.01-11.05-58.9-10.12-88.35,3.67-11.97,13.79-22.09,23.93-29.45,14.71-2.75,28.51,2.76,34.03,14.73Z" style="fill: #fff; fill-rule: evenodd;"/>
</svg>